<svg xmlns="http://www.w3.org/2000/svg" viewBox="0 0 24 24"><defs><style>.cls-1{fill:#7ec36a;}.cls-2{fill:#fff;}</style></defs><g id="Layer_2" data-name="Layer 2"><g id="Graphic_Elements" data-name="Graphic Elements"><circle class="cls-1" cx="12" cy="12" r="12"/><path class="cls-2" d="M20,11.3c0-3.58-3.59-6.5-8-6.5S4,7.72,4,11.3c0,3.21,2.85,5.91,6.7,6.41.26.06.62.18.71.4a1.59,1.59,0,0,1,0,.72l-.11.69c0,.2-.16.79.69.43a25.6,25.6,0,0,0,6.3-4.65h0A5.76,5.76,0,0,0,20,11.3Z"/><path class="cls-1" d="M17.34,13.37a.15.15,0,0,0,.15-.15v-.57a.15.15,0,0,0-.15-.15H15.81v-.59h1.53a.16.16,0,0,0,.15-.16v-.56a.16.16,0,0,0-.15-.16H15.81v-.59h1.53a.15.15,0,0,0,.15-.15V9.72a.15.15,0,0,0-.15-.15H15.09a.16.16,0,0,0-.16.15h0v3.49h0a.16.16,0,0,0,.16.15h2.25Z"/><path class="cls-1" d="M9,13.37a.16.16,0,0,0,.16-.15v-.57A.16.16,0,0,0,9,12.5H7.48V9.72a.15.15,0,0,0-.15-.15H6.76a.15.15,0,0,0-.15.15v3.5h0a.15.15,0,0,0,.15.15H9Z"/><rect class="cls-1" x="9.65" y="9.57" width="0.87" height="3.8" rx="0.15"/><path class="cls-1" d="M14.24,9.57h-.57a.16.16,0,0,0-.16.15V11.8l-1.6-2.16v0h-.68a.15.15,0,0,0-.15.15v3.5a.15.15,0,0,0,.15.15h.57a.15.15,0,0,0,.15-.15V11.14l1.6,2.17,0,0h.66a.15.15,0,0,0,.15-.15V9.72A.15.15,0,0,0,14.24,9.57Z"/></g></g></svg>